<svg width="111" height="48" viewBox="0 0 111 48" fill="none" xmlns="http://www.w3.org/2000/svg">
<mask id="mask0_3_4" style="mask-type:alpha" maskUnits="userSpaceOnUse" x="0" y="0" width="111" height="48">
<rect width="111" height="48" fill="#D9D9D9"/>
</mask>
<g mask="url(#mask0_3_4)">
<path d="M51.6488 17.4C51.7022 17.6 51.8355 17.7867 52.0488 17.96C52.2755 18.12 52.5222 18.2 52.7888 18.2V19.06C51.5888 18.98 50.7488 18.94 50.2688 18.94C49.7755 18.94 48.9288 18.98 47.7288 19.06V18.2C48.2488 18.1867 48.6088 18.12 48.8088 18C49.0222 17.8667 49.1288 17.68 49.1288 17.44C49.1288 17.3067 49.0955 17.14 49.0288 16.94L48.5688 15.34H44.5688L44.0888 16.94C43.9955 17.22 43.9488 17.4333 43.9488 17.58C43.9488 17.78 44.0422 17.9333 44.2288 18.04C44.4155 18.1333 44.7622 18.1867 45.2688 18.2V19.06C44.5222 18.9933 43.8688 18.96 43.3088 18.96C42.7888 18.96 42.2022 18.9933 41.5488 19.06V18.2C41.8022 18.2 42.0355 18.12 42.2488 17.96C42.4755 17.7867 42.6288 17.6 42.7088 17.4L45.9888 6.44H48.2288L51.6488 17.4ZM48.2888 14.38L46.6288 8.64H46.5488L44.8488 14.38H48.2888ZM54.1373 9.48C54.7906 9.56 55.6706 9.6 56.7773 9.6H60.5573V10.32L56.3573 18.14H57.2573C58.0439 18.14 58.6373 17.9333 59.0373 17.52C59.4373 17.1067 59.7639 16.46 60.0173 15.58L61.0773 15.74C60.8373 16.3667 60.5773 17.2467 60.2973 18.38L60.1173 19.12C59.1573 19.04 58.3706 19 57.7573 19H53.7973V18.36L58.0773 10.4H57.4773C56.8239 10.4 56.3039 10.5 55.9173 10.7C55.5439 10.9 55.2706 11.1733 55.0973 11.52C54.9239 11.8667 54.7906 12.32 54.6973 12.88L53.7973 12.8C53.9039 12.16 53.9773 11.6067 54.0173 11.14C54.0706 10.6733 54.1106 10.12 54.1373 9.48ZM61.9362 18.26C62.4162 18.2467 62.7562 18.1867 62.9562 18.08C63.1695 17.96 63.3028 17.7933 63.3562 17.58C63.4095 17.3667 63.4362 17.02 63.4362 16.54V12.24C63.4362 11.8133 63.4095 11.5067 63.3562 11.32C63.3028 11.12 63.1695 10.9667 62.9562 10.86C62.7562 10.7533 62.4162 10.6933 61.9362 10.68V9.96L65.1362 9.34L65.5962 9.52V16.54C65.5962 17.02 65.6228 17.3667 65.6762 17.58C65.7295 17.7933 65.8562 17.96 66.0562 18.08C66.2695 18.1867 66.6162 18.2467 67.0962 18.26V19.06L66.6362 19.04C65.8228 18.9867 65.1162 18.96 64.5162 18.96C64.3428 18.96 63.6162 18.9867 62.3362 19.04L61.9362 19.06V18.26ZM64.2962 5.2C64.7495 5.2 65.0828 5.32 65.2962 5.56C65.5228 5.8 65.6362 6.13333 65.6362 6.56C65.6362 6.98667 65.5295 7.3 65.3162 7.5C65.1028 7.68667 64.7628 7.78 64.2962 7.78C63.8562 7.78 63.5295 7.68667 63.3162 7.5C63.1028 7.3 62.9962 6.98667 62.9962 6.56C62.9962 6.13333 63.1028 5.8 63.3162 5.56C63.5428 5.32 63.8695 5.2 64.2962 5.2ZM68.5123 9.48C69.1656 9.56 70.0456 9.6 71.1523 9.6H74.9323V10.32L70.7323 18.14H71.6323C72.4189 18.14 73.0123 17.9333 73.4123 17.52C73.8123 17.1067 74.1389 16.46 74.3923 15.58L75.4523 15.74C75.2123 16.3667 74.9523 17.2467 74.6723 18.38L74.4923 19.12C73.5323 19.04 72.7456 19 72.1323 19H68.1723V18.36L72.4523 10.4H71.8523C71.1989 10.4 70.6789 10.5 70.2923 10.7C69.9189 10.9 69.6456 11.1733 69.4723 11.52C69.2989 11.8667 69.1656 12.32 69.0723 12.88L68.1723 12.8C68.2789 12.16 68.3523 11.6067 68.3923 11.14C68.4456 10.6733 68.4856 10.12 68.5123 9.48Z" fill="#6248AC"/>
<path d="M33.5573 29.46C34.544 29.54 35.2773 29.58 35.7573 29.58C36.2507 29.58 36.9773 29.54 37.9373 29.46V30.34C37.3507 30.3533 36.944 30.5733 36.7173 31C36.4907 31.4267 36.3773 32.0133 36.3773 32.76V42H35.4973L29.0373 32.98V38.74C29.0373 39.4867 29.1507 40.08 29.3773 40.52C29.604 40.9467 30.0173 41.1733 30.6173 41.2V42.06C29.6173 41.9933 28.884 41.96 28.4173 41.96C27.964 41.96 27.2373 41.9933 26.2373 42.06V41.2C26.8107 41.1733 27.2107 40.9467 27.4373 40.52C27.6773 40.08 27.7973 39.4867 27.7973 38.74V31.96C27.7973 31.4667 27.644 31.08 27.3373 30.8C27.044 30.52 26.6773 30.38 26.2373 30.38V29.5C26.9307 29.5267 27.4573 29.54 27.8173 29.54C28.1773 29.54 28.704 29.5267 29.3973 29.5L35.1373 37.48V32.76C35.1373 32.0133 35.0173 31.4267 34.7773 31C34.5507 30.5733 34.144 30.3533 33.5573 30.34V29.46ZM43.0256 32.3C44.2656 32.3 45.2123 32.6867 45.8656 33.46C46.5323 34.22 46.8656 35.3333 46.8656 36.8C46.8656 38 46.679 39.0133 46.3056 39.84C45.9323 40.6667 45.4256 41.2867 44.7856 41.7C44.1456 42.1 43.4256 42.3 42.6256 42.3C41.399 42.3 40.4523 41.9067 39.7856 41.12C39.1323 40.32 38.8056 39.2 38.8056 37.76C38.8056 36.56 38.9923 35.5533 39.3656 34.74C39.739 33.9133 40.239 33.3 40.8656 32.9C41.5056 32.5 42.2256 32.3 43.0256 32.3ZM42.6656 33.2C42.119 33.2 41.719 33.5533 41.4656 34.26C41.2123 34.9533 41.0856 36.04 41.0856 37.52C41.0856 38.6533 41.259 39.5867 41.6056 40.32C41.9656 41.0533 42.4523 41.42 43.0656 41.42C43.5323 41.42 43.899 41.0467 44.1656 40.3C44.4323 39.54 44.5656 38.44 44.5656 37C44.5656 35.8667 44.399 34.9533 44.0656 34.26C43.7456 33.5533 43.279 33.2 42.6656 33.2ZM65.3834 41.26C65.8634 41.2467 66.2034 41.1867 66.4034 41.08C66.6168 40.96 66.7501 40.7933 66.8034 40.58C66.8568 40.3667 66.8834 40.02 66.8834 39.54V35.24C66.8834 34.8133 66.8568 34.5067 66.8034 34.32C66.7501 34.12 66.6168 33.9667 66.4034 33.86C66.2034 33.7533 65.8634 33.6933 65.3834 33.68V32.96L68.5834 32.34L69.0434 32.52V39.54C69.0434 40.02 69.0701 40.3667 69.1234 40.58C69.1768 40.7933 69.3034 40.96 69.5034 41.08C69.7168 41.1867 70.0634 41.2467 70.5434 41.26V42.06L70.0834 42.04C69.2701 41.9867 68.5634 41.96 67.9634 41.96C67.7901 41.96 67.0634 41.9867 65.7834 42.04L65.3834 42.06V41.26ZM67.7434 28.2C68.1968 28.2 68.5301 28.32 68.7434 28.56C68.9701 28.8 69.0834 29.1333 69.0834 29.56C69.0834 29.9867 68.9768 30.3 68.7634 30.5C68.5501 30.6867 68.2101 30.78 67.7434 30.78C67.3034 30.78 66.9768 30.6867 66.7634 30.5C66.5501 30.3 66.4434 29.9867 66.4434 29.56C66.4434 29.1333 66.5501 28.8 66.7634 28.56C66.9901 28.32 67.3168 28.2 67.7434 28.2ZM78.7395 39.54C78.7395 40.0067 78.7662 40.3533 78.8195 40.58C78.8729 40.7933 79.0062 40.96 79.2195 41.08C79.4329 41.1867 79.7795 41.2467 80.2595 41.26V42.06C79.5929 41.9933 78.9929 41.96 78.4595 41.96C77.9662 41.96 77.4062 41.9933 76.7795 42.06V40.32C76.5262 40.9467 76.1462 41.4333 75.6395 41.78C75.1462 42.1267 74.6395 42.3 74.1195 42.3C72.4529 42.3 71.6195 41.4733 71.6195 39.82C71.6195 37.78 73.2795 36.76 76.5995 36.76V35.04C76.5995 34.3733 76.4862 33.8933 76.2595 33.6C76.0329 33.2933 75.6595 33.14 75.1395 33.14C74.6462 33.14 74.2795 33.3733 74.0395 33.84C73.8129 34.3067 73.6995 34.9933 73.6995 35.9H72.5395V32.98C73.6062 32.5267 74.6062 32.3 75.5395 32.3C76.5395 32.3 77.3195 32.52 77.8795 32.96C78.4529 33.4 78.7395 34.1533 78.7395 35.22V39.54ZM74.8195 40.8C75.2195 40.8 75.5729 40.66 75.8795 40.38C76.1995 40.0867 76.4329 39.6867 76.5795 39.18V37.64C75.5395 37.64 74.8129 37.8067 74.3995 38.14C73.9862 38.4733 73.7795 38.94 73.7795 39.54C73.7795 39.94 73.8662 40.2533 74.0395 40.48C74.2129 40.6933 74.4729 40.8 74.8195 40.8ZM90.0945 39.54C90.0945 40.02 90.1212 40.3667 90.1745 40.58C90.2279 40.7933 90.3545 40.96 90.5545 41.08C90.7679 41.1867 91.1079 41.2467 91.5745 41.26V42.06C90.4145 41.9933 89.5679 41.96 89.0345 41.96C88.5012 41.96 87.6479 41.9933 86.4745 42.06V41.26C86.9412 41.2467 87.2745 41.1867 87.4745 41.08C87.6745 40.96 87.8012 40.7933 87.8545 40.58C87.9079 40.3533 87.9345 40.0067 87.9345 39.54V35.22C87.9345 34.74 87.8012 34.3867 87.5345 34.16C87.2679 33.92 86.9345 33.8 86.5345 33.8C86.1479 33.8 85.7612 33.94 85.3745 34.22C85.0012 34.5 84.6812 34.86 84.4145 35.3V39.54C84.4145 40.02 84.4412 40.3667 84.4945 40.58C84.5479 40.7933 84.6745 40.96 84.8745 41.08C85.0745 41.1867 85.4079 41.2467 85.8745 41.26V42.06C84.6479 41.9933 83.7612 41.96 83.2145 41.96C82.6679 41.96 81.8479 41.9933 80.7545 42.06V41.26C81.2345 41.2467 81.5745 41.1867 81.7745 41.08C81.9879 40.96 82.1212 40.7933 82.1745 40.58C82.2279 40.3667 82.2545 40.02 82.2545 39.54V35.24C82.2545 34.8133 82.2279 34.5067 82.1745 34.32C82.1212 34.12 81.9879 33.9667 81.7745 33.86C81.5745 33.7533 81.2345 33.6933 80.7545 33.68V32.92L83.8745 32.3L84.3145 32.5V34.2C84.6879 33.6 85.1545 33.1333 85.7145 32.8C86.2879 32.4667 86.8545 32.3 87.4145 32.3C88.2279 32.3 88.8745 32.52 89.3545 32.96C89.8479 33.4 90.0945 34.04 90.0945 34.88V39.54Z" fill="white"/>
<path d="M56.9766 33.32C56.6166 33.3333 56.3366 33.4 56.1366 33.52C55.9499 33.6267 55.8032 33.7867 55.6966 34C55.5899 34.2 55.4766 34.5 55.3566 34.9L53.0366 42H51.0566L48.4166 34.12C48.3099 33.8133 48.1632 33.6067 47.9766 33.5C47.8032 33.38 47.5499 33.32 47.2166 33.32V32.52C48.2032 32.6 48.9766 32.64 49.5366 32.64C50.0966 32.64 50.9699 32.6 52.1566 32.52V33.32C51.7032 33.3333 51.3766 33.4067 51.1766 33.54C50.9899 33.6733 50.8966 33.8733 50.8966 34.14C50.8966 34.3133 50.9499 34.5733 51.0566 34.92L52.6366 40.28H52.6566L54.3366 34.92C54.4166 34.68 54.4566 34.4667 54.4566 34.28C54.4566 33.96 54.3366 33.7267 54.0966 33.58C53.8699 33.4333 53.5099 33.3467 53.0166 33.32V32.52C53.9766 32.6 54.6632 32.64 55.0766 32.64C55.5032 32.64 56.1366 32.6 56.9766 32.52V33.32ZM63.8309 32.3C64.1909 32.3 64.5043 32.3667 64.7709 32.5C64.6643 34.0067 64.5909 34.78 64.5509 34.82H63.8509C63.8376 34.6733 63.7576 34.56 63.6109 34.48C63.4776 34.4 63.3043 34.36 63.0909 34.36C62.7576 34.36 62.4243 34.4933 62.0909 34.76C61.7576 35.0133 61.4709 35.4333 61.2309 36.02V39.54C61.2309 40.02 61.2576 40.3667 61.3109 40.58C61.3776 40.7933 61.5376 40.96 61.7909 41.08C62.0443 41.1867 62.4576 41.2467 63.0309 41.26V42.06C61.6309 41.9933 60.7109 41.96 60.2709 41.96C60.0576 41.96 59.2976 41.9867 57.9909 42.04L57.5709 42.06V41.26C58.0509 41.2467 58.3909 41.1867 58.5909 41.08C58.8043 40.96 58.9376 40.7933 58.9909 40.58C59.0443 40.3667 59.0709 40.02 59.0709 39.54V35.24C59.0709 34.8133 59.0443 34.5067 58.9909 34.32C58.9376 34.12 58.8043 33.9667 58.5909 33.86C58.3909 33.7533 58.0509 33.6933 57.5709 33.68V32.92L60.6909 32.3L61.1309 32.5V34.62C61.7976 33.0733 62.6976 32.3 63.8309 32.3Z" fill="#116577"/>
</g>
</svg>
